<svg width="759" height="229" viewBox="0 0 759 229" fill="none" xmlns="http://www.w3.org/2000/svg">
<path d="M30.4806 228.327C47.3145 228.327 60.9612 214.681 60.9612 197.847C60.9612 181.013 47.3145 167.366 30.4806 167.366C13.6466 167.366 0 181.013 0 197.847C0 214.681 13.6466 228.327 30.4806 228.327Z" fill="#D7CCC8"/>
<path d="M314.868 228.327C331.702 228.327 345.348 214.681 345.348 197.847C345.348 181.013 331.702 167.366 314.868 167.366C298.034 167.366 284.387 181.013 284.387 197.847C284.387 214.681 298.034 228.327 314.868 228.327Z" fill="#D7CCC8"/>
<path d="M104.803 228.327L152.921 126.187L93.5743 0H0L104.803 228.327Z" fill="#D7CCC8"/>
<path d="M262.755 0H178.265V228.327H262.755V0Z" fill="#D7CCC8"/>
<path d="M427.082 217.923H418.186V223.956H428.59V227.667H413.556V205.187H428.59V208.945H418.186V214.294H427.082V217.923Z" fill="#D7CCC8"/>
<path d="M447.747 221.776C447.771 221.391 447.699 221.005 447.539 220.654C447.379 220.303 447.134 219.996 446.828 219.761C445.794 219.099 444.666 218.599 443.482 218.277C442.172 217.875 440.899 217.362 439.676 216.745C437.119 215.355 435.847 213.505 435.847 211.16C435.832 209.995 436.191 208.855 436.872 207.908C437.629 206.908 438.648 206.137 439.818 205.682C441.188 205.133 442.654 204.861 444.13 204.88C445.61 204.855 447.077 205.153 448.43 205.752C449.617 206.275 450.631 207.125 451.352 208.203C452.054 209.277 452.419 210.537 452.401 211.82H447.771C447.789 211.38 447.711 210.941 447.542 210.534C447.373 210.127 447.117 209.762 446.793 209.464C446.021 208.846 445.046 208.539 444.059 208.604C443.125 208.55 442.198 208.803 441.42 209.322C441.119 209.537 440.876 209.822 440.711 210.153C440.547 210.484 440.467 210.85 440.477 211.219C440.485 211.596 440.592 211.963 440.786 212.286C440.981 212.608 441.256 212.874 441.585 213.057C442.594 213.672 443.685 214.14 444.825 214.448C446.95 214.963 448.924 215.972 450.586 217.393C451.176 217.958 451.642 218.639 451.954 219.394C452.267 220.148 452.419 220.96 452.401 221.776C452.434 222.663 452.25 223.544 451.864 224.343C451.477 225.142 450.901 225.834 450.186 226.359C448.454 227.538 446.387 228.121 444.295 228.021C442.674 228.041 441.067 227.716 439.582 227.066C438.271 226.527 437.143 225.623 436.33 224.462C435.571 223.332 435.18 221.995 435.211 220.633H439.853C439.853 223.123 441.337 224.364 444.307 224.356C445.216 224.407 446.118 224.173 446.887 223.685C447.178 223.464 447.409 223.173 447.56 222.84C447.71 222.506 447.774 222.141 447.747 221.776V221.776Z" fill="#D7CCC8"/>
<path d="M477.203 208.945H470.31V227.667H465.68V208.945H458.881V205.187H477.203V208.945Z" fill="#D7CCC8"/>
<path d="M501.64 205.186V219.985C501.695 221.079 501.514 222.172 501.107 223.188C500.7 224.205 500.078 225.122 499.283 225.876C497.538 227.388 495.273 228.161 492.968 228.032C490.698 228.151 488.466 227.406 486.723 225.947C485.941 225.216 485.325 224.325 484.918 223.335C484.512 222.345 484.323 221.278 484.367 220.209V205.186H488.997V219.985C488.945 220.565 489.012 221.15 489.195 221.703C489.377 222.256 489.671 222.766 490.058 223.201C490.86 223.911 491.91 224.275 492.98 224.215C495.584 224.215 496.915 222.848 496.95 220.103V205.139L501.64 205.186Z" fill="#D7CCC8"/>
<path d="M510.146 227.667V205.187H517.063C518.918 205.155 520.748 205.619 522.365 206.53C523.922 207.416 525.191 208.734 526.017 210.324C526.908 212.053 527.358 213.976 527.325 215.92V216.957C527.361 218.892 526.92 220.806 526.041 222.53C525.218 224.117 523.954 225.43 522.4 226.312C520.785 227.218 518.961 227.685 517.11 227.667H510.146ZM514.777 208.945V223.956H517.016C517.798 224.003 518.58 223.866 519.3 223.557C520.02 223.249 520.658 222.776 521.163 222.177C522.215 220.7 522.734 218.909 522.636 217.099V215.92C522.767 214.077 522.264 212.243 521.21 210.725C520.705 210.126 520.067 209.655 519.346 209.348C518.626 209.041 517.844 208.907 517.063 208.957L514.777 208.945Z" fill="#D7CCC8"/>
<path d="M540.367 227.667H535.725V205.187H540.367V227.667Z" fill="#D7CCC8"/>
<path d="M567.867 216.934C567.912 218.941 567.509 220.933 566.688 222.766C565.975 224.354 564.806 225.695 563.331 226.619C561.815 227.506 560.091 227.974 558.335 227.974C556.579 227.974 554.854 227.506 553.339 226.619C551.856 225.695 550.673 224.361 549.934 222.778C549.117 220.977 548.714 219.016 548.756 217.04V215.932C548.704 213.905 549.107 211.892 549.934 210.041C550.657 208.446 551.833 207.098 553.316 206.165C554.831 205.277 556.555 204.81 558.311 204.81C560.067 204.81 561.792 205.277 563.307 206.165C564.795 207.091 565.973 208.441 566.688 210.041C567.514 211.868 567.916 213.858 567.867 215.862V216.934ZM563.154 215.92C563.275 214.043 562.832 212.171 561.881 210.548C561.465 209.983 560.922 209.523 560.296 209.207C559.67 208.89 558.978 208.725 558.276 208.725C557.574 208.725 556.882 208.89 556.256 209.207C555.63 209.523 555.087 209.983 554.671 210.548C553.72 212.155 553.273 214.01 553.386 215.873V216.957C553.269 218.838 553.712 220.712 554.659 222.342C555.063 222.922 555.6 223.397 556.225 223.728C556.85 224.058 557.545 224.234 558.252 224.241C558.959 224.248 559.657 224.086 560.289 223.768C560.92 223.449 561.466 222.985 561.881 222.412C562.819 220.796 563.261 218.94 563.154 217.075V215.92Z" fill="#D7CCC8"/>
<path d="M597.665 205.187H602.295V220.751C602.322 222.078 601.993 223.388 601.341 224.545C600.718 225.637 599.788 226.522 598.666 227.09C597.453 227.697 596.111 228.004 594.754 227.985C592.742 228.105 590.758 227.456 589.205 226.171C588.52 225.509 587.987 224.708 587.641 223.821C587.295 222.935 587.146 221.984 587.202 221.034H591.915C591.848 221.904 592.094 222.769 592.61 223.473C592.898 223.752 593.243 223.967 593.621 224.103C593.999 224.239 594.401 224.294 594.802 224.262C595.202 224.279 595.6 224.205 595.967 224.046C596.335 223.887 596.661 223.646 596.922 223.343C597.495 222.605 597.776 221.682 597.712 220.751L597.665 205.187Z" fill="#D7CCC8"/>
<path d="M628.027 205.186V219.985C628.077 221.069 627.892 222.151 627.485 223.158C627.078 224.164 626.46 225.071 625.671 225.817C623.931 227.331 621.669 228.104 619.367 227.973C617.093 228.094 614.858 227.349 613.111 225.888C612.33 225.156 611.716 224.265 611.309 223.275C610.902 222.285 610.713 221.219 610.755 220.15V205.186H615.385V219.985C615.333 220.565 615.4 221.15 615.582 221.703C615.765 222.256 616.058 222.766 616.445 223.201C617.248 223.911 618.298 224.275 619.367 224.215C621.971 224.215 623.303 222.848 623.338 220.103V205.139L628.027 205.186Z" fill="#D7CCC8"/>
<path d="M644.887 219.444H641.199V227.691H636.557V205.187H644.922C647.113 205.047 649.284 205.676 651.061 206.966C651.786 207.578 652.359 208.35 652.735 209.221C653.112 210.092 653.28 211.038 653.228 211.985C653.274 213.336 652.926 214.67 652.227 215.826C651.479 216.915 650.431 217.762 649.211 218.265L654.077 227.456V227.668H649.105L644.887 219.444ZM641.199 215.685H644.934C645.913 215.748 646.88 215.432 647.632 214.801C647.959 214.486 648.214 214.104 648.381 213.681C648.547 213.258 648.621 212.805 648.598 212.351C648.622 211.895 648.554 211.439 648.398 211.01C648.242 210.581 648.002 210.187 647.691 209.853C647.314 209.524 646.874 209.274 646.399 209.118C645.923 208.962 645.421 208.904 644.922 208.946H641.199V215.685Z" fill="#D7CCC8"/>
<path d="M666.413 227.667H661.782V205.187H666.413V227.667ZM664.975 199.119H669.841L665.564 203.903H661.935L664.975 199.119Z" fill="#D7CCC8"/>
<path d="M675.45 227.667V205.187H682.366C684.225 205.157 686.059 205.62 687.68 206.53C689.233 207.422 690.5 208.738 691.333 210.324C692.224 212.053 692.673 213.975 692.64 215.92V216.957C692.672 218.892 692.231 220.805 691.356 222.53C690.534 224.116 689.269 225.43 687.715 226.312C686.097 227.22 684.269 227.687 682.413 227.667H675.45ZM680.081 208.945V223.956H682.319C683.103 224.003 683.887 223.866 684.609 223.557C685.331 223.249 685.971 222.776 686.478 222.177C687.526 220.697 688.044 218.909 687.951 217.098V215.92C688.077 214.077 687.574 212.246 686.525 210.724C686.019 210.125 685.378 209.653 684.656 209.346C683.934 209.039 683.15 208.906 682.366 208.957L680.081 208.945Z" fill="#D7CCC8"/>
<path d="M705.672 227.667H701.042V205.187H705.672V227.667Z" fill="#D7CCC8"/>
<path d="M732.359 220.185C732.324 221.269 732.069 222.335 731.609 223.317C731.149 224.3 730.494 225.178 729.684 225.9C727.887 227.353 725.619 228.095 723.31 227.985C722.031 228.046 720.754 227.815 719.577 227.311C718.399 226.807 717.351 226.042 716.512 225.075C714.742 222.797 713.859 219.955 714.026 217.075V215.708C714 213.74 714.402 211.791 715.204 209.994C715.88 208.437 717.004 207.116 718.432 206.2C720.168 205.218 722.154 204.768 724.144 204.904C726.133 205.04 728.039 205.757 729.626 206.966C731.287 208.488 732.278 210.606 732.383 212.857H727.74C727.758 211.694 727.338 210.566 726.562 209.699C725.669 208.972 724.529 208.618 723.381 208.709C722.71 208.667 722.039 208.798 721.433 209.089C720.826 209.379 720.304 209.821 719.917 210.371C719.038 211.938 718.629 213.726 718.739 215.52V217.228C718.604 219.072 718.988 220.916 719.846 222.553C720.227 223.114 720.749 223.564 721.359 223.858C721.969 224.152 722.647 224.279 723.322 224.227C724.476 224.322 725.623 223.972 726.527 223.249C727.291 222.426 727.712 221.343 727.705 220.221L732.359 220.185Z" fill="#D7CCC8"/>
<path d="M758.609 216.934C758.649 218.941 758.246 220.932 757.431 222.766C756.71 224.349 755.543 225.688 754.073 226.619C752.556 227.506 750.83 227.974 749.072 227.974C747.314 227.974 745.588 227.506 744.07 226.619C742.588 225.697 741.408 224.362 740.677 222.778C739.86 220.977 739.457 219.016 739.499 217.04V215.932C739.441 213.905 739.844 211.89 740.677 210.041C741.392 208.441 742.57 207.091 744.058 206.165C745.574 205.277 747.298 204.81 749.054 204.81C750.81 204.81 752.534 205.277 754.05 206.165C755.532 207.098 756.708 208.446 757.431 210.041C758.251 211.87 758.653 213.858 758.609 215.862V216.934ZM753.896 215.92C754.009 214.044 753.557 212.177 752.6 210.56C752.184 209.994 751.641 209.535 751.015 209.218C750.389 208.902 749.697 208.737 748.995 208.737C748.293 208.737 747.601 208.902 746.975 209.218C746.349 209.535 745.806 209.994 745.39 210.56C744.443 212.168 744 214.023 744.117 215.885V216.969C744.005 218.837 744.443 220.697 745.378 222.318C745.767 222.924 746.308 223.418 746.946 223.75C747.585 224.083 748.299 224.243 749.019 224.215C749.715 224.238 750.405 224.082 751.024 223.762C751.643 223.443 752.169 222.97 752.553 222.389C753.491 220.773 753.933 218.917 753.826 217.052L753.896 215.92Z" fill="#D7CCC8"/>
</svg>
