<svg id="Capa_1" data-name="Capa 1" xmlns="http://www.w3.org/2000/svg" viewBox="0 0 295.34 280.24"><defs><style>.cls-1{fill:#1c202c;}.cls-2{fill:#746a5e;}</style></defs><title>logo 1</title><circle class="cls-1" cx="26.99" cy="172.86" r="25.87"/><circle class="cls-1" cx="268.36" cy="172.86" r="25.87"/><polygon class="cls-1" points="90.07 198.73 130.91 112.04 80.54 4.94 1.12 4.94 90.07 198.73"/><rect class="cls-1" x="152.42" y="4.94" width="71.71" height="193.79"/><path class="cls-2" d="M12.72,264.25H5.17v5.12H14v3.15H1.24V253.44H14v3.19H5.17v4.54h7.55Z"/><path class="cls-2" d="M30.26,267.52a2,2,0,0,0-.78-1.71,10.26,10.26,0,0,0-2.84-1.26,20.56,20.56,0,0,1-3.23-1.3c-2.17-1.18-3.25-2.75-3.25-4.74a4.62,4.62,0,0,1,.87-2.76,5.75,5.75,0,0,1,2.5-1.89,9.51,9.51,0,0,1,3.66-.68,8.65,8.65,0,0,1,3.65.74A5.8,5.8,0,0,1,33.32,256a5.47,5.47,0,0,1,.89,3.07H30.28a2.57,2.57,0,0,0-.83-2,3.36,3.36,0,0,0-2.32-.73,3.66,3.66,0,0,0-2.24.61,1.91,1.91,0,0,0-.8,1.61,1.83,1.83,0,0,0,.94,1.56,10.58,10.58,0,0,0,2.75,1.18,11.81,11.81,0,0,1,4.89,2.5,5,5,0,0,1,1.54,3.72,4.61,4.61,0,0,1-1.88,3.89,8.19,8.19,0,0,1-5,1.41,9.67,9.67,0,0,1-4-.81,6.29,6.29,0,0,1-2.76-2.21,5.6,5.6,0,0,1-.95-3.25h3.94q0,3.17,3.78,3.16a3.7,3.7,0,0,0,2.19-.57A1.86,1.86,0,0,0,30.26,267.52Z"/><path class="cls-2" d="M55.26,256.63H49.41v15.89H45.48V256.63H39.71v-3.19H55.26Z"/><path class="cls-2" d="M76,253.44V266A6.44,6.44,0,0,1,74,271a7.54,7.54,0,0,1-5.36,1.83,7.63,7.63,0,0,1-5.3-1.77,6.31,6.31,0,0,1-2-4.87V253.44h3.93V266a3.62,3.62,0,0,0,.9,2.73,3.45,3.45,0,0,0,2.48.86c2.21,0,3.34-1.16,3.37-3.49v-12.7Z"/><path class="cls-2" d="M83.22,272.52V253.44h5.87a8.85,8.85,0,0,1,4.5,1.14,7.89,7.89,0,0,1,3.1,3.22,10,10,0,0,1,1.11,4.75v.88a10,10,0,0,1-1.09,4.73,7.84,7.84,0,0,1-3.09,3.21,9,9,0,0,1-4.49,1.15Zm3.93-15.89v12.74h1.9a4.27,4.27,0,0,0,3.52-1.51,6.79,6.79,0,0,0,1.25-4.31v-1a6.88,6.88,0,0,0-1.21-4.41,4.25,4.25,0,0,0-3.52-1.5Z"/><path class="cls-2" d="M108.87,272.52h-3.94V253.44h3.94Z"/><path class="cls-2" d="M132.21,263.41a11.48,11.48,0,0,1-1,4.95,7.47,7.47,0,0,1-2.85,3.27,8.39,8.39,0,0,1-8.48,0,7.66,7.66,0,0,1-2.89-3.26,11.21,11.21,0,0,1-1-4.87v-.94a11.53,11.53,0,0,1,1-5,7.59,7.59,0,0,1,2.87-3.29,8.39,8.39,0,0,1,8.48,0,7.46,7.46,0,0,1,2.87,3.29,11.32,11.32,0,0,1,1,4.94Zm-4-.86a8,8,0,0,0-1.08-4.56,3.8,3.8,0,0,0-6.12,0,7.93,7.93,0,0,0-1.09,4.52v.92A8.1,8.1,0,0,0,121,268a3.76,3.76,0,0,0,6.13.06,8.1,8.1,0,0,0,1.08-4.53Z"/><path class="cls-2" d="M157.5,253.44h3.93v13.21a6.29,6.29,0,0,1-.81,3.22,5.44,5.44,0,0,1-2.27,2.16,7.19,7.19,0,0,1-3.32.76,6.76,6.76,0,0,1-4.71-1.54,5.6,5.6,0,0,1-1.7-4.36h4a3.1,3.1,0,0,0,.59,2.07,2.4,2.4,0,0,0,1.86.67,2.25,2.25,0,0,0,1.8-.78,3.23,3.23,0,0,0,.67-2.2Z"/><path class="cls-2" d="M183.27,253.44V266a6.41,6.41,0,0,1-2,4.95,7.5,7.5,0,0,1-5.35,1.83,7.64,7.64,0,0,1-5.31-1.77,6.34,6.34,0,0,1-2-4.87V253.44h3.93V266a3.62,3.62,0,0,0,.9,2.73,3.45,3.45,0,0,0,2.48.86c2.21,0,3.34-1.16,3.37-3.49v-12.7Z"/><path class="cls-2" d="M197.58,265.54h-3.13v7h-3.94V253.44h7.1a8,8,0,0,1,5.21,1.51,5.2,5.2,0,0,1,1.84,4.26,5.92,5.92,0,0,1-.85,3.26,5.78,5.78,0,0,1-2.56,2.07l4.13,7.8v.18h-4.22Zm-3.13-3.19h3.17a3.24,3.24,0,0,0,2.29-.75,2.7,2.7,0,0,0,.82-2.08,2.89,2.89,0,0,0-.77-2.12,3.17,3.17,0,0,0-2.35-.77h-3.16Z"/><path class="cls-2" d="M215.85,272.52h-3.93V253.44h3.93Zm-1.22-24.23h4.13l-3.63,4.06h-3.08Z"/><path class="cls-2" d="M223.52,272.52V253.44h5.87a8.92,8.92,0,0,1,4.51,1.14,8,8,0,0,1,3.1,3.22,10,10,0,0,1,1.11,4.75v.88a10.09,10.09,0,0,1-1.09,4.73,7.84,7.84,0,0,1-3.09,3.21,9,9,0,0,1-4.5,1.15Zm3.93-15.89v12.74h1.9a4.29,4.29,0,0,0,3.53-1.51,6.85,6.85,0,0,0,1.25-4.31v-1a6.94,6.94,0,0,0-1.21-4.41,4.26,4.26,0,0,0-3.53-1.5Z"/><path class="cls-2" d="M249.17,272.52h-3.93V253.44h3.93Z"/><path class="cls-2" d="M271.82,266.17a6.79,6.79,0,0,1-2.27,4.85,8,8,0,0,1-5.41,1.77,7.19,7.19,0,0,1-5.77-2.47,10.11,10.11,0,0,1-2.11-6.79v-1.16a11.53,11.53,0,0,1,1-4.85A7.26,7.26,0,0,1,260,254.3a8.65,8.65,0,0,1,9.5.65,7.24,7.24,0,0,1,2.34,5h-3.94a3.93,3.93,0,0,0-1-2.68,3.8,3.8,0,0,0-2.7-.84,3.34,3.34,0,0,0-2.94,1.41,7.94,7.94,0,0,0-1,4.37v1.45a8.41,8.41,0,0,0,.94,4.52,3.26,3.26,0,0,0,2.95,1.42,3.85,3.85,0,0,0,2.72-.83,3.74,3.74,0,0,0,1-2.57Z"/><path class="cls-2" d="M294.1,263.41a11.63,11.63,0,0,1-1,4.95,7.6,7.6,0,0,1-2.85,3.27,8.41,8.41,0,0,1-8.49,0,7.58,7.58,0,0,1-2.88-3.26,11.22,11.22,0,0,1-1-4.87v-.94a11.38,11.38,0,0,1,1-5,7.46,7.46,0,0,1,2.87-3.29,8.39,8.39,0,0,1,8.48,0,7.59,7.59,0,0,1,2.87,3.29,11.47,11.47,0,0,1,1,4.94Zm-4-.86A8,8,0,0,0,289,258a3.8,3.8,0,0,0-6.12,0,7.93,7.93,0,0,0-1.08,4.52v.92a8.11,8.11,0,0,0,1.07,4.54,3.51,3.51,0,0,0,3.09,1.61,3.46,3.46,0,0,0,3-1.55,8.1,8.1,0,0,0,1.08-4.53Z"/></svg>