<svg id="Capa_1" data-name="Capa 1" xmlns="http://www.w3.org/2000/svg" viewBox="0 0 295.34 280.24"><defs><style>.cls-1{fill:#746a5e;}.cls-2{fill:#1c202c;}</style></defs><title>logo 2</title><path class="cls-1" d="M35.16,230.61H28.37v4.6h8v2.85H24.83V220.88H36.32v2.87H28.37v4.09h6.79Z"/><path class="cls-1" d="M51,233.55a1.82,1.82,0,0,0-.71-1.54,9.31,9.31,0,0,0-2.54-1.13,18,18,0,0,1-2.92-1.18q-2.93-1.57-2.92-4.25a4.19,4.19,0,0,1,.78-2.49,5.14,5.14,0,0,1,2.25-1.7,8.48,8.48,0,0,1,3.3-.62,7.78,7.78,0,0,1,3.28.67,5.23,5.23,0,0,1,2.23,1.88,4.85,4.85,0,0,1,.8,2.76H51a2.34,2.34,0,0,0-.74-1.83,3,3,0,0,0-2.09-.66,3.32,3.32,0,0,0-2,.55,1.74,1.74,0,0,0-.72,1.45,1.66,1.66,0,0,0,.85,1.4,9.42,9.42,0,0,0,2.48,1.06,10.76,10.76,0,0,1,4.4,2.26,4.47,4.47,0,0,1,1.38,3.35A4.11,4.11,0,0,1,52.81,237a7.33,7.33,0,0,1-4.54,1.27,8.85,8.85,0,0,1-3.61-.72,5.79,5.79,0,0,1-2.48-2,5.1,5.1,0,0,1-.86-2.93h3.55c0,1.9,1.14,2.85,3.4,2.85a3.25,3.25,0,0,0,2-.52A1.67,1.67,0,0,0,51,233.55Z"/><path class="cls-1" d="M73.45,223.75H68.19v14.31H64.65V223.75H59.46v-2.87h14Z"/><path class="cls-1" d="M92.09,220.88v11.31a5.81,5.81,0,0,1-1.76,4.46,6.79,6.79,0,0,1-4.82,1.64,6.88,6.88,0,0,1-4.78-1.59,5.72,5.72,0,0,1-1.81-4.38V220.88h3.54v11.34a3.28,3.28,0,0,0,.81,2.46,3.14,3.14,0,0,0,2.24.77q3,0,3-3.14V220.88Z"/><path class="cls-1" d="M98.61,238.06V220.88h5.29a8,8,0,0,1,4,1,7.15,7.15,0,0,1,2.79,2.9,9,9,0,0,1,1,4.28v.79a8.92,8.92,0,0,1-1,4.26A7.1,7.1,0,0,1,108,237a8.12,8.12,0,0,1-4,1Zm3.54-14.31v11.46h1.71a3.86,3.86,0,0,0,3.18-1.35,6.18,6.18,0,0,0,1.12-3.88v-.91a6.18,6.18,0,0,0-1.09-4,3.82,3.82,0,0,0-3.17-1.35Z"/><path class="cls-1" d="M121.7,238.06h-3.54V220.88h3.54Z"/><path class="cls-1" d="M142.72,229.86a10.29,10.29,0,0,1-.9,4.44,6.69,6.69,0,0,1-2.57,2.95,7,7,0,0,1-3.83,1,7.19,7.19,0,0,1-3.81-1,6.89,6.89,0,0,1-2.59-2.94,10.15,10.15,0,0,1-.93-4.38v-.85a10.27,10.27,0,0,1,.91-4.46,6.75,6.75,0,0,1,2.58-3,7.54,7.54,0,0,1,7.64,0,6.75,6.75,0,0,1,2.58,3,10.25,10.25,0,0,1,.92,4.45Zm-3.59-.78a7.21,7.21,0,0,0-1-4.11,3.42,3.42,0,0,0-5.51,0,7.17,7.17,0,0,0-1,4.06v.84a7.37,7.37,0,0,0,1,4.08,3.39,3.39,0,0,0,5.52.05,7.25,7.25,0,0,0,1-4.07Z"/><path class="cls-1" d="M165.48,220.88H169v11.89a5.75,5.75,0,0,1-.72,2.9,5,5,0,0,1-2,1.94,6.44,6.44,0,0,1-3,.68,6.11,6.11,0,0,1-4.25-1.38,5.08,5.08,0,0,1-1.52-3.93h3.56a2.78,2.78,0,0,0,.53,1.87,2.14,2.14,0,0,0,1.68.6,2,2,0,0,0,1.61-.7,2.88,2.88,0,0,0,.61-2Z"/><path class="cls-1" d="M188.67,220.88v11.31a5.81,5.81,0,0,1-1.76,4.46,6.79,6.79,0,0,1-4.82,1.64,6.88,6.88,0,0,1-4.78-1.59,5.72,5.72,0,0,1-1.81-4.38V220.88H179v11.34a3.28,3.28,0,0,0,.81,2.46,3.14,3.14,0,0,0,2.24.77q3,0,3-3.14V220.88Z"/><path class="cls-1" d="M201.55,231.77h-2.81v6.29H195.2V220.88h6.38a7.16,7.16,0,0,1,4.69,1.36,4.67,4.67,0,0,1,1.65,3.83,5.25,5.25,0,0,1-.76,2.93,5.06,5.06,0,0,1-2.3,1.87l3.71,7v.17h-3.79Zm-2.81-2.87h2.85a2.86,2.86,0,0,0,2.06-.68,2.41,2.41,0,0,0,.74-1.87,2.6,2.6,0,0,0-.69-1.91,2.89,2.89,0,0,0-2.12-.69h-2.84Z"/><path class="cls-1" d="M218,238.06h-3.54V220.88H218Zm-1.1-21.82h3.72l-3.27,3.66h-2.77Z"/><path class="cls-1" d="M224.9,238.06V220.88h5.29a8,8,0,0,1,4.05,1,7.15,7.15,0,0,1,2.79,2.9,9,9,0,0,1,1,4.28v.79a8.92,8.92,0,0,1-1,4.26,7.1,7.1,0,0,1-2.78,2.89,8.16,8.16,0,0,1-4.05,1Zm3.54-14.31v11.46h1.71a3.86,3.86,0,0,0,3.18-1.35,6.18,6.18,0,0,0,1.12-3.88v-.91a6.18,6.18,0,0,0-1.09-4,3.82,3.82,0,0,0-3.17-1.35Z"/><path class="cls-1" d="M248,238.06h-3.54V220.88H248Z"/><path class="cls-1" d="M268.38,232.34a6.11,6.11,0,0,1-2.05,4.36,7.18,7.18,0,0,1-4.86,1.59,6.46,6.46,0,0,1-5.2-2.22,9.13,9.13,0,0,1-1.89-6.11v-1.05a10.31,10.31,0,0,1,.87-4.36,6.57,6.57,0,0,1,2.49-2.9,7.78,7.78,0,0,1,8.56.59,6.53,6.53,0,0,1,2.1,4.47h-3.54a3.53,3.53,0,0,0-.92-2.41,3.43,3.43,0,0,0-2.43-.75,3,3,0,0,0-2.65,1.26,7.22,7.22,0,0,0-.9,3.94v1.3a7.55,7.55,0,0,0,.85,4.07,3,3,0,0,0,2.66,1.28,3.46,3.46,0,0,0,2.44-.75,3.38,3.38,0,0,0,.93-2.31Z"/><path class="cls-1" d="M288.44,229.86a10.29,10.29,0,0,1-.9,4.44,6.69,6.69,0,0,1-2.57,2.95,7,7,0,0,1-3.82,1,7.15,7.15,0,0,1-3.81-1,6.84,6.84,0,0,1-2.6-2.94,10.15,10.15,0,0,1-.93-4.38v-.85a10.27,10.27,0,0,1,.91-4.46,6.71,6.71,0,0,1,2.59-3,7.52,7.52,0,0,1,7.63,0,6.75,6.75,0,0,1,2.58,3,10.25,10.25,0,0,1,.92,4.45Zm-3.59-.78a7.21,7.21,0,0,0-1-4.11,3.42,3.42,0,0,0-5.51,0,7.17,7.17,0,0,0-1,4.06v.84a7.37,7.37,0,0,0,1,4.08,3.14,3.14,0,0,0,2.79,1.45,3.11,3.11,0,0,0,2.73-1.4,7.25,7.25,0,0,0,1-4.07Z"/><path class="cls-2" d="M59.57,94.73v93.75H27.73V94.73A20.87,20.87,0,0,0,6.91,73.8V42A52.74,52.74,0,0,1,59.57,94.73Z"/><path class="cls-2" d="M130.14,188.47H98.24V94.75a20.84,20.84,0,0,0-20.8-20.93V42a52.72,52.72,0,0,1,52.67,52.8V164.7Z"/><path class="cls-2" d="M220,164.7v23.77H169V94.75a20.84,20.84,0,0,0-20.8-20.93V42a52.73,52.73,0,0,1,52.67,52.8V164.7Z"/><polygon class="cls-2" points="283 41.95 283 188.47 251.09 188.47 251.09 65.69 231.9 65.69 231.9 41.95 283 41.95"/></svg>