<svg width="346" height="229" viewBox="0 0 346 229" fill="none" xmlns="http://www.w3.org/2000/svg">
<path d="M30.4806 228.327C47.3145 228.327 60.9612 214.681 60.9612 197.847C60.9612 181.013 47.3145 167.366 30.4806 167.366C13.6466 167.366 0 181.013 0 197.847C0 214.681 13.6466 228.327 30.4806 228.327Z" fill="#D7CCC8"/>
<path d="M314.868 228.327C331.702 228.327 345.348 214.681 345.348 197.847C345.348 181.013 331.702 167.366 314.868 167.366C298.034 167.366 284.387 181.013 284.387 197.847C284.387 214.681 298.034 228.327 314.868 228.327Z" fill="#D7CCC8"/>
<path d="M104.803 228.327L152.921 126.187L93.5743 0H0L104.803 228.327Z" fill="#D7CCC8"/>
<path d="M262.755 0H178.265V228.327H262.755V0Z" fill="#D7CCC8"/>
</svg>
